<?xml version="1.0" encoding="UTF-8"?>
<svg version="1.1" xmlns="http://www.w3.org/2000/svg" width="405" height="336">
<path d="M0 0 C133.65 0 267.3 0 405 0 C405 110.88 405 221.76 405 336 C271.35 336 137.7 336 0 336 C0 225.12 0 114.24 0 0 Z " fill="#FDFDFD" transform="translate(0,0)"/>
<path d="M0 0 C1.30324219 0.75796875 1.30324219 0.75796875 2.6328125 1.53125 C21.06340891 13.09050908 36.45083794 32.64504355 41.47558594 54.0234375 C42.46255643 58.65901506 43.25434496 63.31950318 44 68 C44.18433594 69.01835937 44.36867188 70.03671875 44.55859375 71.0859375 C48.16285802 94.88046089 38.67738534 118.02737694 25 137 C14.02513001 151.21159923 -1.37979762 160.69409969 -18 167 C-18.74121094 167.3403125 -19.48242188 167.680625 -20.24609375 168.03125 C-24.26965861 169.44663168 -28.35102371 170.01198664 -32.5625 170.625 C-33.45855957 170.75543701 -34.35461914 170.88587402 -35.27783203 171.02026367 C-59.6953572 174.40166079 -82.64801932 168.21621727 -102.8125 154.1875 C-122.15067801 139.2852159 -136.35778176 117.09592085 -139.8125 92.625 C-139.91259411 91.08531707 -139.96732796 89.54258708 -140 88 C-140.01901367 87.37399902 -140.03802734 86.74799805 -140.05761719 86.10302734 C-140.77693558 60.09554035 -134.69536023 39.27875463 -118 19 C-117.2575 18.01 -116.515 17.02 -115.75 16 C-109.3174639 8.40749837 -100.66790285 2.71481382 -92 -2 C-91.08734375 -2.51433594 -90.1746875 -3.02867188 -89.234375 -3.55859375 C-61.1294326 -18.62554816 -27.02626973 -15.72891449 0 0 Z " fill="#020202" transform="translate(251,64)"/>
<path d="M0 0 C4.35027359 3.51624874 8.48457219 7.21483255 12.546875 11.05859375 C13.3821875 11.82945313 14.2175 12.6003125 15.078125 13.39453125 C24.10553621 22.00400676 30.83547659 31.99651683 36.546875 43.05859375 C36.96582031 43.81140625 37.38476562 44.56421875 37.81640625 45.33984375 C44.11182269 57.05578492 46.3229703 70.08581631 48.546875 83.05859375 C50.15175781 83.47238281 50.15175781 83.47238281 51.7890625 83.89453125 C58.89218335 86.0948743 63.91878559 90.3973933 67.515625 96.8984375 C72.53053829 107.40316117 73.33942597 119.84526697 70.85546875 131.2265625 C67.60810437 139.99037014 61.68094642 147.40179956 53.546875 152.05859375 C47.46643596 154.47681807 41.17451974 155.03632203 35.01953125 152.74609375 C33.89417969 152.18921875 32.76882813 151.63234375 31.609375 151.05859375 C30.46597656 150.50171875 29.32257813 149.94484375 28.14453125 149.37109375 C27.28730469 148.93796875 26.43007813 148.50484375 25.546875 148.05859375 C26.165625 146.26421875 26.165625 146.26421875 26.796875 144.43359375 C28.13607907 140.3905938 29.39926868 136.32963607 30.609375 132.24609375 C30.93035156 131.16714844 31.25132812 130.08820313 31.58203125 128.9765625 C36.6051721 109.77803547 37.03623708 87.90192773 30.546875 69.05859375 C30.10467396 67.64388289 29.66465489 66.22848857 29.2265625 64.8125 C21.59511489 40.95457712 5.48178518 19.50813737 -16.453125 7.05859375 C-17.24976563 6.55070312 -18.04640625 6.0428125 -18.8671875 5.51953125 C-43.32516861 -10.01566848 -73.36485669 -12.91564571 -101.453125 -6.94140625 C-126.02366727 -1.25579766 -146.35750291 12.85857495 -162.453125 32.05859375 C-163.03707031 32.71988281 -163.62101562 33.38117188 -164.22265625 34.0625 C-172.10068393 43.43432977 -176.93953939 54.86609273 -180.828125 66.37109375 C-181.18596069 67.42671509 -181.18596069 67.42671509 -181.55102539 68.50366211 C-184.96163416 79.13485136 -185.7727277 89.36546209 -185.703125 100.49609375 C-185.71085937 101.72908203 -185.71859375 102.96207031 -185.7265625 104.23242188 C-185.70360833 115.09548252 -184.3836216 125.2036735 -180.890625 135.49609375 C-179.51346643 139.6516597 -178.19495889 143.73261858 -177.453125 148.05859375 C-186.75357656 153.26684662 -192.17104439 155.52318192 -202.640625 152.87109375 C-207.04763411 151.42451824 -209.4740734 149.69965682 -212.453125 146.05859375 C-213.17242187 145.37216797 -213.17242187 145.37216797 -213.90625 144.671875 C-221.23728613 137.32232616 -223.8832028 127.00486971 -223.890625 116.87109375 C-223.77803086 110.54595255 -223.77803086 110.54595255 -221.453125 107.05859375 C-221.02 105.48078125 -221.02 105.48078125 -220.578125 103.87109375 C-217.71098443 94.15467293 -213.23668284 88.93129655 -204.359375 83.86328125 C-202.453125 83.05859375 -202.453125 83.05859375 -199.453125 83.05859375 C-199.32421875 81.8984375 -199.1953125 80.73828125 -199.0625 79.54296875 C-195.77787554 53.42675892 -182.38601905 30.84219434 -164.453125 12.05859375 C-163.92847656 11.47078125 -163.40382812 10.88296875 -162.86328125 10.27734375 C-121.30181242 -34.56251066 -47.23244613 -35.84355749 0 0 Z " fill="#070707" transform="translate(279.453125,44.94140625)"/>
<path d="M0 0 C-3.34166781 1.82569168 -6.73145247 2.91288092 -10.375 4 C-14.60788338 5.26887371 -18.8139734 6.58358012 -23 8 C-23.16677282 11.41656024 -23.16677282 11.41656024 -23 15 C-21.0745356 17.2236068 -21.0745356 17.2236068 -18 18 C-15.99079378 17.49739984 -15.99079378 17.49739984 -13.875 16.625 C-9.21804427 14.95033119 -4.92482047 14.39085877 0 14 C-2.84260094 15.89506729 -5.24092422 16.92179521 -8.4375 18.0625 C-9.38496094 18.40410156 -10.33242187 18.74570313 -11.30859375 19.09765625 C-13.53115039 19.84280949 -15.71721909 20.47652542 -18 21 C-17.01 21.99 -16.02 22.98 -15 24 C-15.495 25.485 -15.495 25.485 -16 27 C-16.99 27.33 -17.98 27.66 -19 28 C-18.505 28.99 -18.505 28.99 -18 30 C-18.99 30.495 -18.99 30.495 -20 31 C-19.505 31.99 -19.505 31.99 -19 33 C-15.34908181 32.37619204 -12.17414511 31.33419077 -8.75 29.9375 C-3.55054196 27.98329393 0.48270514 27.63821017 6 28 C6 28.33 6 28.66 6 29 C5.12859375 29.1959375 4.2571875 29.391875 3.359375 29.59375 C-10.72192014 33.12931328 -22.14056337 40.21683348 -29.75 52.921875 C-36.42218818 65.56053916 -38.01393549 78.18874821 -34.4375 92.1875 C-30.54600264 104.3808584 -23.20767997 114.94885542 -11.73852539 120.94433594 C-6.92561094 123.34795573 -2.13571815 125.39216119 3 127 C-2.7379176 129.10159874 -8.62082987 126.15166805 -14 124 C-17.06893777 122.26118296 -19.96267138 120.40668876 -22.85546875 118.390625 C-24.85368816 116.81864173 -24.85368816 116.81864173 -27 117 C-28.66666667 117 -30.33333333 117 -32 117 C-33.13210475 119.13079138 -33.13210475 119.13079138 -33 122 C-27.0268235 131.28659894 -14.27944576 137.21235369 -4 140 C-4 140.33 -4 140.66 -4 141 C-7.63 140.67 -11.26 140.34 -15 140 C-15.33 141.65 -15.66 143.3 -16 145 C-16.66 145 -17.32 145 -18 145 C-18 145.99 -18 146.98 -18 148 C-18.66 148.66 -19.32 149.32 -20 150 C-17.77236012 150.81690177 -15.5430514 151.62861872 -13.3125 152.4375 C-12.68666016 152.66759766 -12.06082031 152.89769531 -11.41601562 153.13476562 C-7.96757692 154.38053667 -4.6186521 155.39804449 -1 156 C-1 156.33 -1 156.66 -1 157 C-20.48402403 156.49570761 -37.40571572 146.21026581 -50.64355469 132.50195312 C-57.35067199 125.07535384 -62.5850867 116.39396566 -66 107 C-66.3405542 106.06341553 -66.3405542 106.06341553 -66.68798828 105.10791016 C-74.10780037 83.97223177 -72.63148231 62.49246248 -63.03955078 42.28808594 C-53.18394235 22.94367062 -36.15648492 9.59240445 -16 2 C-10.53697927 0.3121563 -5.67678329 -0.20274226 0 0 Z " fill="#0A0A0A" transform="translate(192,65)"/>
<path d="M0 0 C10.56 0 21.12 0 32 0 C34.41325771 7.23977312 36.53042912 13.65214562 38 21 C38.66 21 39.32 21 40 21 C40.18175781 20.154375 40.36351562 19.30875 40.55078125 18.4375 C40.80214844 17.303125 41.05351563 16.16875 41.3125 15 C41.55613281 13.88625 41.79976562 12.7725 42.05078125 11.625 C43.08746427 7.66598008 44.56302757 3.83192649 46 0 C55.9 0 65.8 0 76 0 C76 3.63 76 7.26 76 11 C74.68 11 73.36 11 72 11 C72 20.9 72 30.8 72 41 C73.32 41 74.64 41 76 41 C76 44.63 76 48.26 76 52 C67.42 52 58.84 52 50 52 C50 48.04 50 44.08 50 40 C51.32 40 52.64 40 54 40 C53.67 32.74 53.34 25.48 53 18 C51.700625 21.96 51.700625 21.96 50.375 26 C47.47827126 34.75638793 44.30736812 43.39146028 41 52 C38.69 52 36.38 52 34 52 C31.34289518 45.42403668 28.77096397 38.81862814 26.234375 32.1953125 C24.79019615 28.45690017 23.30226585 24.73755755 21.796875 21.0234375 C21.14522312 19.36875282 20.56237279 17.68711837 20 16 C19.67 24.25 19.34 32.5 19 41 C20.32 41 21.64 41 23 41 C23 44.3 23 47.6 23 51 C15.74 51 8.48 51 1 51 C1 47.7 1 44.4 1 41 C2.32 41 3.64 41 5 41 C5 31.1 5 21.2 5 11 C3.35 11 1.7 11 0 11 C0 7.37 0 3.74 0 0 Z " fill="#060606" transform="translate(56,260)"/>
<path d="M0 0 C8.25 0 16.5 0 25 0 C27.475 4.455 27.475 4.455 30 9 C31.75280523 11.86845936 33.51574693 14.72229922 35.3125 17.5625 C35.76689453 18.28501953 36.22128906 19.00753906 36.68945312 19.75195312 C37.79086909 21.50262482 38.89512536 23.25150907 40 25 C40.33 20.38 40.66 15.76 41 11 C39.68 11 38.36 11 37 11 C37 7.37 37 3.74 37 0 C44.59 0 52.18 0 60 0 C60 3.63 60 7.26 60 11 C58.68 11 57.36 11 56 11 C56 24.53 56 38.06 56 52 C38 52 38 52 34.08203125 48.66796875 C32.8605957 46.51147461 32.8605957 46.51147461 31.8125 44.1875 C31.39508545 43.41736572 30.9776709 42.64723145 30.54760742 41.85375977 C29.71295207 40.31269667 28.90328928 38.75779466 28.12109375 37.18945312 C26.55059038 34.12232023 24.7097192 31.31344339 22.8125 28.4375 C21.884375 26.973125 20.95625 25.50875 20 24 C19.67 29.28 19.34 34.56 19 40 C20.32 40 21.64 40 23 40 C23 43.96 23 47.92 23 52 C15.41 52 7.82 52 0 52 C0 48.04 0 44.08 0 40 C1.32 40 2.64 40 4 40 C4 30.43 4 20.86 4 11 C2.68 11 1.36 11 0 11 C0 7.37 0 3.74 0 0 Z " fill="#080808" transform="translate(259,260)"/>
<path d="M0 0 C-6 2 -12 4 -18 6 C-17.01 6.99 -16.02 7.98 -15 9 C-15.33 9.99 -15.66 10.98 -16 12 C-16.99 12.33 -17.98 12.66 -19 13 C-18.505 13.99 -18.505 13.99 -18 15 C-18.99 15.495 -18.99 15.495 -20 16 C-19.505 16.99 -19.505 16.99 -19 18 C-15.34908181 17.37619204 -12.17414511 16.33419077 -8.75 14.9375 C-3.55054196 12.98329393 0.48270514 12.63821017 6 13 C6 13.33 6 13.66 6 14 C5.12859375 14.1959375 4.2571875 14.391875 3.359375 14.59375 C-10.72192014 18.12931328 -22.14056337 25.21683348 -29.75 37.921875 C-36.42218818 50.56053916 -38.01393549 63.18874821 -34.4375 77.1875 C-30.54600264 89.3808584 -23.20767997 99.94885542 -11.73852539 105.94433594 C-6.92561094 108.34795573 -2.13571815 110.39216119 3 112 C-2.7379176 114.10159874 -8.62082987 111.15166805 -14 109 C-17.06893777 107.26118296 -19.96267138 105.40668876 -22.85546875 103.390625 C-24.85368816 101.81864173 -24.85368816 101.81864173 -27 102 C-28.66666667 102 -30.33333333 102 -32 102 C-33.13210475 104.13079138 -33.13210475 104.13079138 -33 107 C-27.0268235 116.28659894 -14.27944576 122.21235369 -4 125 C-4 125.33 -4 125.66 -4 126 C-18.36599485 125.42536021 -30.07894843 117.26258387 -39.69140625 107.17578125 C-52.73067915 92.30984418 -58.24368561 75.53789968 -57 56 C-56.94070312 54.97132813 -56.88140625 53.94265625 -56.8203125 52.8828125 C-55.19890886 38.2901797 -45.58925042 22.23765541 -34.46459961 12.98779297 C-25.67990904 6.07375987 -11.58534861 -3.53495047 0 0 Z " fill="#0B0B0B" transform="translate(192,80)"/>
<path d="M0 0 C7.26 0 14.52 0 22 0 C22 5.61 22 11.22 22 17 C22.66 17 23.32 17 24 17 C24.25652344 16.29359375 24.51304687 15.5871875 24.77734375 14.859375 C26.1051216 11.75415651 27.72826744 9.08367869 29.5625 6.25 C30.18253906 5.28578125 30.80257813 4.3215625 31.44140625 3.328125 C33 1 33 1 34 0 C36.86267567 -0.07325168 39.700719 -0.09238205 42.5625 -0.0625 C43.36880859 -0.05798828 44.17511719 -0.05347656 45.00585938 -0.04882812 C47.00393756 -0.03700518 49.00197783 -0.01906914 51 0 C51 3.63 51 7.26 51 11 C49.02 11.99 49.02 11.99 47 13 C44.75880168 15.24343068 44.75880168 15.24343068 42.6875 17.875 C41.96949219 18.73867188 41.25148438 19.60234375 40.51171875 20.4921875 C38.82283515 22.79307844 38.82283515 22.79307844 39.03125 24.96875 C40.35797499 27.75059273 42.00108726 30.13136688 43.8125 32.625 C44.49957031 33.58664062 45.18664062 34.54828125 45.89453125 35.5390625 C48.00175513 38.32496158 48.00175513 38.32496158 52 40 C52 43.96 52 47.92 52 52 C45.4 52 38.8 52 32 52 C28.9074583 46.36470179 25.87537238 40.75074476 23 35 C22.67 40.61 22.34 46.22 22 52 C14.74 52 7.48 52 0 52 C0 48.04 0 44.08 0 40 C1.32 40 2.64 40 4 40 C4 30.43 4 20.86 4 11 C2.68 11 1.36 11 0 11 C0 7.37 0 3.74 0 0 Z " fill="#090909" transform="translate(321,260)"/>
<path d="M0 0 C7.24879275 2.84192738 11.52698734 8.14718662 15.32421875 14.76171875 C17.4995444 22.18341802 17.07944583 28.43431892 13.578125 35.3515625 C9.37470279 42.53183454 4.16190297 45.79499068 -3.61328125 48.38671875 C-10.76331325 49.17399664 -16.45276092 48.13925792 -22.61328125 44.38671875 C-27.95245405 39.87808394 -32.19301025 34.47771118 -32.921875 27.3828125 C-33.23045607 18.86410471 -32.45693896 12.84674603 -26.61328125 6.38671875 C-18.36677818 -0.36795462 -10.63382947 -2.49553248 0 0 Z " fill="#F6F6F6" transform="translate(211.61328125,119.61328125)"/>
<path d="M0 0 C8.25 0 16.5 0 25 0 C25 3.63 25 7.26 25 11 C24.01 11 23.02 11 22 11 C22.33 19.91 22.66 28.82 23 38 C24.98 38.33 26.96 38.66 29 39 C29.33 29.76 29.66 20.52 30 11 C29.34 11 28.68 11 28 11 C28 7.7 28 4.4 28 1 C35.26 1 42.52 1 50 1 C50 4.3 50 7.6 50 11 C48.68 11 47.36 11 46 11 C46.02094727 11.83660156 46.04189453 12.67320312 46.06347656 13.53515625 C46.13211966 16.67362309 46.18202563 19.81170416 46.21972656 22.95068359 C46.24946045 24.96347627 46.30031729 26.97592134 46.3515625 28.98828125 C46.42691334 36.4856899 46.2199977 41.70058315 42 48 C36.47862362 53.01943307 30.04107602 52.49448408 22.9375 52.3359375 C18.20263647 51.93197097 13.83433288 51.51062707 10.07421875 48.4140625 C9.61660156 47.82367188 9.15898437 47.23328125 8.6875 46.625 C7.98173828 45.74714844 7.98173828 45.74714844 7.26171875 44.8515625 C4.41067504 40.66767793 3.75639025 37.82263382 3.8046875 32.703125 C3.81113281 31.49785156 3.81757813 30.29257812 3.82421875 29.05078125 C3.84097656 27.79652344 3.85773438 26.54226563 3.875 25.25 C3.88402344 23.98027344 3.89304688 22.71054687 3.90234375 21.40234375 C3.92590995 18.26803907 3.95881168 15.13411459 4 12 C2.68 11.67 1.36 11.34 0 11 C0 7.37 0 3.74 0 0 Z " fill="#070707" transform="translate(134,260)"/>
<path d="M0 0 C1 1 1 1 1.09765625 3.50390625 C1.06510417 6.3359375 1.03255208 9.16796875 1 12 C-3.62 12 -8.24 12 -13 12 C-13.33 11.34 -13.66 10.68 -14 10 C-15.65 10 -17.3 10 -19 10 C-19.33 10.99 -19.66 11.98 -20 13 C-19.39414063 13.13535156 -18.78828125 13.27070313 -18.1640625 13.41015625 C-10.24317297 15.44521556 -2.64765631 19.02851553 2 26 C2.67247778 31.85681232 2.820103 37.23829725 0.3125 42.625 C-4.53600127 47.60454184 -8.83921564 48.88567376 -15.671875 49.1328125 C-17.03124667 49.13679115 -18.39065198 49.13395149 -19.75 49.125 C-20.45576172 49.12306641 -21.16152344 49.12113281 -21.88867188 49.11914062 C-26.99917476 49.07690506 -31.94517343 48.72211808 -37 48 C-37 47.34 -37 46.68 -37 46 C-37.66 46 -38.32 46 -39 46 C-39 42.04 -39 38.08 -39 34 C-34.38 34 -29.76 34 -25 34 C-24.67 34.66 -24.34 35.32 -24 36 C-20.97065509 36.65772428 -20.97065509 36.65772428 -18 37 C-18.66192598 34.00288656 -18.66192598 34.00288656 -20.53466797 32.95678711 C-21.18064941 32.6500708 -21.82663086 32.34335449 -22.4921875 32.02734375 C-23.19730469 31.68509766 -23.90242188 31.34285156 -24.62890625 30.99023438 C-25.37011719 30.64283203 -26.11132812 30.29542969 -26.875 29.9375 C-28.33153066 29.23995236 -29.78729011 28.54079158 -31.2421875 27.83984375 C-32.21454346 27.38146118 -32.21454346 27.38146118 -33.20654297 26.91381836 C-35.96883547 25.50635023 -37.73577644 24.5186939 -39.1640625 21.71484375 C-40.95543439 15.89707054 -40.98130249 10.0758322 -38.375 4.5625 C-28.79429967 -5.77457141 -12.30937249 -5.305764 0 0 Z " fill="#080808" transform="translate(226,263)"/>
<path d="M0 0 C8.91 0 17.82 0 27 0 C27 3.63 27 7.26 27 11 C25.68 11.33 24.36 11.66 23 12 C23 21.57 23 31.14 23 41 C23.99 41 24.98 41 26 41 C26 44.3 26 47.6 26 51 C17.75 51 9.5 51 1 51 C1 47.7 1 44.4 1 41 C2.485 40.505 2.485 40.505 4 40 C4.33 30.43 4.66 20.86 5 11 C3.35 11 1.7 11 0 11 C0 7.37 0 3.74 0 0 Z " fill="#080808" transform="translate(230,260)"/>
<path d="M0 0 C-3.20410613 1.7630249 -6.34907926 2.68416828 -9.875 3.625 C-30.12532068 9.77728352 -45.96741539 24.08422866 -55.875 42.5625 C-65.23972668 60.61484204 -67.37711688 82.18227522 -61.375 101.75 C-54.66566377 122.10310119 -40.93830352 138.98286566 -21.9296875 149.16796875 C-15.31909117 152.442615 -8.12442155 154.2059568 -1 156 C-1 156.33 -1 156.66 -1 157 C-20.48402403 156.49570761 -37.40571572 146.21026581 -50.64355469 132.50195312 C-57.35067199 125.07535384 -62.5850867 116.39396566 -66 107 C-66.3405542 106.06341553 -66.3405542 106.06341553 -66.68798828 105.10791016 C-74.10780037 83.97223177 -72.63148231 62.49246248 -63.03955078 42.28808594 C-53.18394235 22.94367062 -36.15648492 9.59240445 -16 2 C-10.53697927 0.3121563 -5.67678329 -0.20274226 0 0 Z " fill="#EDEDED" transform="translate(192,65)"/>
<path d="M0 0 C-0.73863281 0.21914062 -1.47726563 0.43828125 -2.23828125 0.6640625 C-20.29463296 6.30810636 -34.19052829 16.07538087 -43.56640625 32.79296875 C-44.87129544 35.49233655 -45.97782146 38.18199407 -47 41 C-47.31839844 41.87527344 -47.63679687 42.75054687 -47.96484375 43.65234375 C-53.50595667 61.85885762 -49.95506104 79.79509723 -41.24609375 96.18359375 C-38.24826394 101.50240885 -34.41554374 105.80924758 -30 110 C-29.41476563 110.56976563 -28.82953125 111.13953125 -28.2265625 111.7265625 C-21.22867865 118.13307589 -13.11893776 122.48898815 -4 125 C-4 125.33 -4 125.66 -4 126 C-18.36599485 125.42536021 -30.07894843 117.26258387 -39.69140625 107.17578125 C-52.73067915 92.30984418 -58.24368561 75.53789968 -57 56 C-56.94070312 54.97132813 -56.88140625 53.94265625 -56.8203125 52.8828125 C-55.19890886 38.2901797 -45.58925042 22.23765541 -34.46459961 12.98779297 C-25.67990904 6.07375987 -11.58534861 -3.53495047 0 0 Z " fill="#F3F3F3" transform="translate(192,80)"/>
<path d="M0 0 C0 0.33 0 0.66 0 1 C-0.87140625 1.1959375 -1.7428125 1.391875 -2.640625 1.59375 C-16.72192014 5.12931328 -28.14056337 12.21683348 -35.75 24.921875 C-42.42218818 37.56053916 -44.01393549 50.18874821 -40.4375 64.1875 C-36.54600264 76.3808584 -29.20767997 86.94885542 -17.73852539 92.94433594 C-12.92561094 95.34795573 -8.13571815 97.39216119 -3 99 C-8.75190909 101.10672333 -14.60041495 98.12932789 -20 96 C-33.71249651 88.88916634 -42.71683939 78.2383871 -47.41992188 63.44042969 C-48.43881341 59.15388094 -48.43275408 54.94860129 -48.375 50.5625 C-48.38660156 49.68529297 -48.39820313 48.80808594 -48.41015625 47.90429688 C-48.35419296 35.24726648 -43.41528964 23.47769034 -34.75 14.1875 C-25.01936739 5.28223355 -13.34145381 -0.87484943 0 0 Z " fill="#F6F6F6" transform="translate(198,93)"/>
<path d="M0 0 C1.32 0.33 2.64 0.66 4 1 C4 1.66 4 2.32 4 3 C5.32 2.34 6.64 1.68 8 1 C8.44988281 1.67804688 8.89976562 2.35609375 9.36328125 3.0546875 C15.83904722 12.42443305 23.43531618 19.84326071 33 26 C32.67 26.66 32.34 27.32 32 28 C31.67 27.67 31.34 27.34 31 27 C29.45833358 28.37485532 29.45833358 28.37485532 28 30 C28 30.66 28 31.32 28 32 C29.65 31.34 31.3 30.68 33 30 C33 30.99 33 31.98 33 33 C33.31669821 35.33564933 33.64820803 37.6693782 34 40 C18.73570855 32.1693824 5.28310427 20.18214227 -3 5 C-2.67 4.01 -2.34 3.02 -2 2 C-1.34 2 -0.68 2 0 2 C0 1.34 0 0.68 0 0 Z " fill="#0A0A0A" transform="translate(126,185)"/>
<path d="M0 0 C0.33 0 0.66 0 1 0 C1 1.65 1 3.3 1 5 C3.31 5.33 5.62 5.66 8 6 C8 15.57 8 25.14 8 35 C6.02 35.495 6.02 35.495 4 36 C4 39.3 4 42.6 4 46 C12.25 46 20.5 46 29 46 C29 42.7 29 39.4 29 36 C28.01 35.67 27.02 35.34 26 35 C27.32 35 28.64 35 30 35 C30 38.96 30 42.92 30 47 C21.09 47 12.18 47 3 47 C2.67 43.04 2.34 39.08 2 35 C1.67 35 1.34 35 1 35 C0.98582031 34.26394531 0.97164062 33.52789062 0.95703125 32.76953125 C0.708869 26.48636356 0.708869 26.48636356 -2.1875 21.0625 C-3.115625 20.381875 -4.04375 19.70125 -5 19 C-5.886875 18.319375 -6.77375 17.63875 -7.6875 16.9375 C-11.94815055 14.44542138 -16.38172265 12.7158817 -21 11 C-20.67 9.68 -20.34 8.36 -20 7 C-18.35 7 -16.7 7 -15 7 C-14.67 7.99 -14.34 8.98 -14 10 C-9.38 10 -4.76 10 0 10 C0 6.7 0 3.4 0 0 Z " fill="#DBDBDB" transform="translate(227,265)"/>
<path d="M0 0 C2.4375 1.8125 2.4375 1.8125 4 4 C4.433125 4.598125 4.86625 5.19625 5.3125 5.8125 C6.37003715 9.17739094 5.83383677 11.60509313 5 15 C2.82262961 18.37867819 0.87224835 20.74721377 -3 22 C-6.23112451 22.57442213 -8.13913829 22.57508385 -10.90625 20.7265625 C-15.61462014 16.77075972 -15.61462014 16.77075972 -17 14 C-17.37593152 9.01890741 -17.1765161 5.94326136 -14 2 C-9.67873534 -1.81288058 -5.30431383 -1.47010945 0 0 Z " fill="#080808" transform="translate(209,133)"/>
<path d="M0 0 C0.33 0 0.66 0 1 0 C1.03738281 1.02738281 1.07476562 2.05476562 1.11328125 3.11328125 C1.95552063 22.37513244 7.72151396 39.44841871 22 53 C22.58523437 53.56976563 23.17046875 54.13953125 23.7734375 54.7265625 C30.77132135 61.13307589 38.88106224 65.48898815 48 68 C48 68.33 48 68.66 48 69 C33.63400515 68.42536021 21.92105157 60.26258387 12.30859375 50.17578125 C2.56169531 39.06344548 -5.20239207 24.78812423 -5.25 9.625 C-5.1675 8.42875 -5.085 7.2325 -5 6 C-4.34 7.32 -3.68 8.64 -3 10 C-2.01 10 -1.02 10 0 10 C0 6.7 0 3.4 0 0 Z " fill="#EDEDED" transform="translate(140,137)"/>
<path d="M0 0 C1.32 0.33 2.64 0.66 4 1 C5.7316239 1.1437323 7.46698333 1.24574932 9.203125 1.31640625 C10.67265625 1.37924805 10.67265625 1.37924805 12.171875 1.44335938 C13.18765625 1.48267578 14.2034375 1.52199219 15.25 1.5625 C16.796875 1.62727539 16.796875 1.62727539 18.375 1.69335938 C20.91651588 1.79925587 23.45824077 1.90011481 26 2 C26 5.96 26 9.92 26 14 C24.68 14 23.36 14 22 14 C22 22.58 22 31.16 22 40 C21.67 40 21.34 40 21 40 C21 31.09 21 22.18 21 13 C22.32 13 23.64 13 25 13 C25 9.7 25 6.4 25 3 C17.74 3 10.48 3 3 3 C3 6.3 3 9.6 3 13 C3.66 13 4.32 13 5 13 C5 22.24 5 31.48 5 41 C0 42 0 42 -3 40 C-3.34057617 37.29443359 -3.34057617 37.29443359 -3.29296875 33.8984375 C-3.28330078 32.68671875 -3.27363281 31.475 -3.26367188 30.2265625 C-3.23853516 28.95554687 -3.21339844 27.68453125 -3.1875 26.375 C-3.17396484 25.09625 -3.16042969 23.8175 -3.14648438 22.5 C-3.11103196 19.33291718 -3.06161441 16.16666459 -3 13 C-2.01 13 -1.02 13 0 13 C0 8.71 0 4.42 0 0 Z " fill="#CFCFCF" transform="translate(159,258)"/>
<path d="M0 0 C0.33 0 0.66 0 1 0 C1 3.63 1 7.26 1 11 C2.32 11 3.64 11 5 11 C5 20.57 5 30.14 5 40 C3.68 40 2.36 40 1 40 C1 43.63 1 47.26 1 51 C0.34 51 -0.32 51 -1 51 C-1 47.37 -1 43.74 -1 40 C-2.32 40 -3.64 40 -5 40 C-5 30.76 -5 21.52 -5 12 C-3.68 11.34 -2.36 10.68 -1 10 C-0.29823412 7.58320293 -0.29823412 7.58320293 -0.25 4.875 C-0.19328125 3.96492188 -0.1365625 3.05484375 -0.078125 2.1171875 C-0.05234375 1.41851562 -0.0265625 0.71984375 0 0 Z " fill="#F5F5F5" transform="translate(258,260)"/>
<path d="M0 0 C0.66 0 1.32 0 2 0 C3.1875 1.6875 3.1875 1.6875 4 4 C3.54625 4.680625 3.0925 5.36125 2.625 6.0625 C-0.22441523 11.213366 0.70685323 16.99955663 1.265625 22.71875 C1.75825679 25.13184583 1.75825679 25.13184583 3.80273438 26.02099609 C4.89038086 26.50560303 4.89038086 26.50560303 6 27 C11.33333333 29.66666667 16.66666667 32.33333333 22 35 C22 35.99 22 36.98 22 38 C20.02 38 18.04 38 16 38 C15.67 37.01 15.34 36.02 15 35 C10.38 35 5.76 35 1 35 C1 38.96 1 42.92 1 47 C1.66 47.33 2.32 47.66 3 48 C2.01 48 1.02 48 0 48 C-0.33 43.71 -0.66 39.42 -1 35 C-2.32 35 -3.64 35 -5 35 C-5 26.75 -5 18.5 -5 10 C-3.68 10 -2.36 10 -1 10 C-1.01160156 9.36191406 -1.02320313 8.72382813 -1.03515625 8.06640625 C-1.04869141 6.82697266 -1.04869141 6.82697266 -1.0625 5.5625 C-1.07410156 4.73878906 -1.08570313 3.91507812 -1.09765625 3.06640625 C-1 1 -1 1 0 0 Z " fill="#F7F7F7" transform="translate(186,262)"/>
<path d="M0 0 C3 1 3 1 4 2.828125 C4.33 3.62734375 4.66 4.4265625 5 5.25 C12.48442411 20.9853254 27.96341442 34.88953456 44.29199219 40.83447266 C49.14497663 42.41739907 54.05098436 43.75375877 59 45 C59 45.33 59 45.66 59 46 C39.5357745 45.49622005 22.60759298 35.22341048 9.37402344 21.53271484 C-1.51745868 9.38333234 -1.51745868 9.38333234 -2 3 C-1.34 2.01 -0.68 1.02 0 0 Z " fill="#EAEAEA" transform="translate(132,176)"/>
<path d="M0 0 C1.85625 0.0309375 1.85625 0.0309375 3.75 0.0625 C0.54589387 1.8255249 -2.59907926 2.74666828 -6.125 3.6875 C-24.09208058 9.14610856 -38.21711126 21.14286346 -48.875 36.38671875 C-49.555625 37.21623047 -49.555625 37.21623047 -50.25 38.0625 C-50.91 38.0625 -51.57 38.0625 -52.25 38.0625 C-52.745 36.5775 -52.745 36.5775 -53.25 35.0625 C-52.59 34.4025 -51.93 33.7425 -51.25 33.0625 C-51.10691406 32.43988281 -50.96382812 31.81726563 -50.81640625 31.17578125 C-48.39289438 22.1335749 -36.14395152 14.34580139 -28.5625 9.9375 C-19.99773563 5.09715082 -10.04099805 -0.16734997 0 0 Z " fill="#EBEBEB" transform="translate(188.25,64.9375)"/>
<path d="M0 0 C2 1 2 1 2.89453125 3.3359375 C3.19746094 4.33882813 3.50039062 5.34171875 3.8125 6.375 C5.48359633 11.62612293 7.49447997 16.55044656 9.8515625 21.52734375 C13 28.30612245 13 28.30612245 13 32 C11.68 31.67 10.36 31.34 9 31 C9 30.34 9 29.68 9 29 C5.77595022 30.66954819 5.77595022 30.66954819 5.3125 33.625 C5.209375 34.40875 5.10625 35.1925 5 36 C4.67 36 4.34 36 4 36 C4 32.7 4 29.4 4 26 C2.68 26 1.36 26 0 26 C0 17.42 0 8.84 0 0 Z " fill="#EDEDED" transform="translate(75,275)"/>
<path d="M0 0 C1.77178425 2.65767637 2.64746624 4.66019788 3.6875 7.625 C8.05683304 18.67684241 16.92954448 27.88284154 27.6875 32.875 C31.40285212 34.42480278 35.13851069 35.85198966 39 37 C33.24809091 39.10672333 27.39958505 36.12932789 22 34 C10.24731491 27.9054578 2.74050055 19.93465768 -3 8 C-3 7.01 -3 6.02 -3 5 C-2.01 5 -1.02 5 0 5 C0 3.35 0 1.7 0 0 Z " fill="#E6E6E6" transform="translate(156,155)"/>
<path d="M0 0 C0 0.33 0 0.66 0 1 C-0.87140625 1.1959375 -1.7428125 1.391875 -2.640625 1.59375 C-15.64948121 4.8600429 -25.92856403 10.9897335 -34 22 C-34.70268775 23.31470611 -35.38267853 24.64311518 -36 26 C-36.66 26 -37.32 26 -38 26 C-37.67 24.68 -37.34 23.36 -37 22 C-37.33 22.33 -37.66 22.66 -38 23 C-38.66 22.34 -39.32 21.68 -40 21 C-30.32328753 8.58210276 -16.33585789 -1.38439474 0 0 Z " fill="#EDEDED" transform="translate(198,93)"/>
<path d="M0 0 C0.33 0 0.66 0 1 0 C1 7.92 1 15.84 1 24 C-0.32 24 -1.64 24 -3 24 C-3 27.63 -3 31.26 -3 35 C-3.33 35 -3.66 35 -4 35 C-4.07347656 33.93458984 -4.07347656 33.93458984 -4.1484375 32.84765625 C-4.26058594 31.46900391 -4.26058594 31.46900391 -4.375 30.0625 C-4.44460937 29.14597656 -4.51421875 28.22945313 -4.5859375 27.28515625 C-4.79089844 26.15400391 -4.79089844 26.15400391 -5 25 C-5.66 24.67 -6.32 24.34 -7 24 C-6.46870624 18.02798909 -5.15389059 13.05383257 -2.9375 7.5 C-2.65583984 6.77296875 -2.37417969 6.0459375 -2.08398438 5.296875 C-1.39741552 3.52808745 -0.69986318 1.76356959 0 0 Z " fill="#F1F1F1" transform="translate(109,276)"/>
<path d="M0 0 C-0.73863281 0.21914062 -1.47726563 0.43828125 -2.23828125 0.6640625 C-15.30622882 4.74883391 -26.43010126 11.09270098 -36 21 C-37.32 20.01 -38.64 19.02 -40 18 C-30.50709881 9.21420505 -13.91023422 -4.19466043 0 0 Z " fill="#E6E6E6" transform="translate(192,80)"/>
<path d="M0 0 C3.18458428 0.47229004 5.03963831 1.60707177 7.5 3.625 C17.97604018 11.64061239 28.37493371 15.75398177 41 19 C41 19.33 41 19.66 41 20 C26.35924447 19.6210628 13.43199706 13.82663861 2 5 C0.109375 2.72265625 0.109375 2.72265625 -1 1 C-0.67 0.67 -0.34 0.34 0 0 Z " fill="#EEEEEE" transform="translate(150,202)"/>
<path d="M0 0 C0.928125 0.825 1.85625 1.65 2.8125 2.5 C11.67041369 10.00881261 19.89790328 15.32871841 31 19 C31 19.33 31 19.66 31 20 C20.51155401 19.58046216 10.59483568 14.66646827 2.2578125 8.4921875 C1 7 1 7 1 3 C0.34 3 -0.32 3 -1 3 C-0.67 2.01 -0.34 1.02 0 0 Z " fill="#DDDDDD" transform="translate(157,186)"/>
<path d="M0 0 C0.33 0 0.66 0 1 0 C1 1.98 1 3.96 1 6 C2.32 6 3.64 6 5 6 C5 10.95 5 15.9 5 21 C2.04865262 18.04865262 0.36688972 15.41737253 -1.6875 11.8125 C-2.31011719 10.72582031 -2.93273437 9.63914062 -3.57421875 8.51953125 C-4.04472656 7.68808594 -4.51523437 6.85664063 -5 6 C-3.68 6 -2.36 6 -1 6 C-0.67 4.02 -0.34 2.04 0 0 Z " fill="#EAEAEA" transform="translate(295,265)"/>
<path d="M0 0 C1.78327252 2.67490879 2.81096301 4.89804683 3.9375 7.875 C5.34558322 11.48222444 6.8424677 14.76370155 9 18 C8.34 18.33 7.68 18.66 7 19 C6.34 18.67 5.68 18.34 5 18 C4.67 18.66 4.34 19.32 4 20 C2.82539808 18.06730041 1.66055528 16.12866687 0.5 14.1875 C-0.1496875 13.10855469 -0.799375 12.02960938 -1.46875 10.91796875 C-3 8 -3 8 -3 5 C-2.01 5 -1.02 5 0 5 C0 3.35 0 1.7 0 0 Z " fill="#E9E9E9" transform="translate(156,155)"/>
<path d="M0 0 C3.0831351 1.19899698 6.06279492 2.47700477 9 4 C9 4.99 9 5.98 9 7 C7.02 7 5.04 7 3 7 C2.67 6.01 2.34 5.02 2 4 C-2.62 4 -7.24 4 -12 4 C-12 7.96 -12 11.92 -12 16 C-11.34 16.33 -10.68 16.66 -10 17 C-10.99 17 -11.98 17 -13 17 C-13 12.38 -13 7.76 -13 3 C-8.38 3 -3.76 3 1 3 C0.67 2.01 0.34 1.02 0 0 Z " fill="#BABABA" transform="translate(199,293)"/>
<path d="M0 0 C1.65 1.32 3.3 2.64 5 4 C3.6078125 5.11375 3.6078125 5.11375 2.1875 6.25 C-0.27126958 8.29025561 -2.21647549 10.32471323 -4 13 C-5.32 12.34 -6.64 11.68 -8 11 C-7.1875 8.0625 -7.1875 8.0625 -6 5 C-5.01 4.67 -4.02 4.34 -3 4 C-2.34 4.33 -1.68 4.66 -1 5 C-0.67 3.35 -0.34 1.7 0 0 Z " fill="#0C0C0C" transform="translate(154,89)"/>
<path d="M0 0 C1.85625 0.0309375 1.85625 0.0309375 3.75 0.0625 C0.44409724 1.8759321 -2.88170738 2.90002747 -6.5 3.9375 C-10.51314303 5.13242461 -14.1856259 6.3931615 -17.875 8.375 C-18.98875 8.931875 -20.1025 9.48875 -21.25 10.0625 C-22.24 9.7325 -23.23 9.4025 -24.25 9.0625 C-21.63010036 5.8738677 -18.62714496 4.84904853 -14.8125 3.4375 C-13.11287109 2.79941406 -13.11287109 2.79941406 -11.37890625 2.1484375 C-7.41205211 0.77167664 -4.20023871 -0.07000398 0 0 Z " fill="#E9E9E9" transform="translate(188.25,64.9375)"/>
<path d="M0 0 C1.32 0.99 2.64 1.98 4 3 C2.7934375 3.556875 2.7934375 3.556875 1.5625 4.125 C-1.31172896 5.8109337 -1.31172896 5.8109337 -1.8125 9.1875 C-1.874375 10.115625 -1.93625 11.04375 -2 12 C-2.99 12.33 -3.98 12.66 -5 13 C-5.33 13.99 -5.66 14.98 -6 16 C-6.99 15.34 -7.98 14.68 -9 14 C-7.65070536 10.16336928 -5.92248975 7.34827431 -3.375 4.1875 C-2.42753906 3.00220703 -2.42753906 3.00220703 -1.4609375 1.79296875 C-0.97882813 1.20128906 -0.49671875 0.60960938 0 0 Z " fill="#0D0D0D" transform="translate(169,108)"/>
<path d="M0 0 C2.76713403 0.18135551 5.3919776 0.4643386 8.125 0.875 C8.87910156 0.97941406 9.63320312 1.08382812 10.41015625 1.19140625 C12.27484156 1.45104598 14.13762887 1.72425029 16 2 C15.01 2.495 15.01 2.495 14 3 C14 3.66 14 4.32 14 5 C11.125 5.625 11.125 5.625 8 6 C7.34 5.34 6.68 4.68 6 4 C4.02 4.66 2.04 5.32 0 6 C-0.66 4.68 -1.32 3.36 -2 2 C-1.34 1.34 -0.68 0.68 0 0 Z " fill="#F4F4F4" transform="translate(180,233)"/>
<path d="M0 0 C0 0.33 0 0.66 0 1 C-0.89460938 1.21914062 -1.78921875 1.43828125 -2.7109375 1.6640625 C-10.66584634 3.75031791 -17.22717613 6.31832452 -24 11 C-24 9.68 -24 8.36 -24 7 C-17.67042773 0.90649569 -8.40107894 -0.55089042 0 0 Z " fill="#CACACA" transform="translate(198,93)"/>
<path d="M0 0 C0.66 0.26683594 1.32 0.53367188 2 0.80859375 C5.65442071 2.25989364 9.32339769 3.66851149 13 5.0625 C13.69867188 5.33126953 14.39734375 5.60003906 15.1171875 5.87695312 C18.7261655 7.24223631 22.16946749 8.39399779 26 9 C26 9.33 26 9.66 26 10 C19.66111011 9.83593461 13.97967742 8.55572581 8 6.5625 C7.3412085 6.34505127 6.68241699 6.12760254 6.00366211 5.90356445 C3.12115437 4.90676743 1.18379107 4.18379107 -1 2 C-0.67 1.34 -0.34 0.68 0 0 Z " fill="#DCDCDC" transform="translate(165,212)"/>
<path d="M0 0 C2.86724686 0.57344937 3.8614515 0.8614515 6 3 C6.99 2.67 7.98 2.34 9 2 C8.01 5.63 7.02 9.26 6 13 C5.34 13 4.68 13 4 13 C3.32942113 11.2097939 2.6636531 9.41778511 2 7.625 C1.62875 6.62726563 1.2575 5.62953125 0.875 4.6015625 C0 2 0 2 0 0 Z " fill="#DDDDDD" transform="translate(90,268)"/>
<path d="M0 0 C2.18361399 2.18361399 3.91194537 4.09378591 5.6875 6.5625 C6.12449219 7.16191406 6.56148438 7.76132812 7.01171875 8.37890625 C8 10 8 10 8 12 C7.01 12.33 6.02 12.66 5 13 C4.67 12.01 4.34 11.02 4 10 C3.67 10.99 3.34 11.98 3 13 C2.01 13 1.02 13 0 13 C0 8.71 0 4.42 0 0 Z " fill="#EBEBEB" transform="translate(278,283)"/>
<path d="M0 0 C1.65 0 3.3 0 5 0 C5.33 0.99 5.66 1.98 6 3 C10.62 3 15.24 3 20 3 C20 3.33 20 3.66 20 4 C16.04 4 12.08 4 8 4 C8 4.99 8 5.98 8 7 C5.03 6.01 2.06 5.02 -1 4 C-0.67 2.68 -0.34 1.36 0 0 Z " fill="#CDCDCD" transform="translate(207,272)"/>
<path d="M0 0 C1.32 0.33 2.64 0.66 4 1 C4 1.66 4 2.32 4 3 C5.32 2.34 6.64 1.68 8 1 C8.66 2.32 9.32 3.64 10 5 C9.01 5 8.02 5 7 5 C4.36186139 5.73854232 4.36186139 5.73854232 2 7 C1.67 7.99 1.34 8.98 1 10 C-1.0625 7.6875 -1.0625 7.6875 -3 5 C-2.67 4.01 -2.34 3.02 -2 2 C-1.34 2 -0.68 2 0 2 C0 1.34 0 0.68 0 0 Z " fill="#0F0F0F" transform="translate(126,185)"/>
<path d="M0 0 C3 0 3 0 4.421875 1.390625 C4.86015625 2.00421875 5.2984375 2.6178125 5.75 3.25 C6.19859375 3.85328125 6.6471875 4.4565625 7.109375 5.078125 C8.21943692 7.47352178 7.88257281 8.56754322 7 11 C7.66 11 8.32 11 9 11 C8.67 11.99 8.34 12.98 8 14 C6.4641556 12.43122326 4.94668669 10.84443846 3.4375 9.25 C2.59058594 8.36828125 1.74367187 7.4865625 0.87109375 6.578125 C-1 4 -1 4 -0.77734375 1.671875 C-0.52082031 1.12015625 -0.26429688 0.5684375 0 0 Z " fill="#F0F0F0" transform="translate(149,178)"/>
<path d="M0 0 C0.66 0.66 1.32 1.32 2 2 C1.67 2.66 1.34 3.32 1 4 C1 5.32 1 6.64 1 8 C-1.1875 9.5625 -1.1875 9.5625 -4 11 C-4.928125 11.556875 -5.85625 12.11375 -6.8125 12.6875 C-7.534375 13.120625 -8.25625 13.55375 -9 14 C-7.65070536 10.16336928 -5.92248975 7.34827431 -3.375 4.1875 C-2.42753906 3.00220703 -2.42753906 3.00220703 -1.4609375 1.79296875 C-0.97882813 1.20128906 -0.49671875 0.60960938 0 0 Z " fill="#101010" transform="translate(133,83)"/>
<path d="M0 0 C2 1 2 1 2.8515625 3.28515625 C3.10679688 4.20167969 3.36203125 5.11820312 3.625 6.0625 C3.88539062 6.98160156 4.14578125 7.90070313 4.4140625 8.84765625 C4.60742188 9.55792969 4.80078125 10.26820313 5 11 C4.01 11 3.02 11 2 11 C2.33 9.68 2.66 8.36 3 7 C2.34 7 1.68 7 1 7 C1 12.94 1 18.88 1 25 C1.99 25.33 2.98 25.66 4 26 C2.68 26 1.36 26 0 26 C0 17.42 0 8.84 0 0 Z " fill="#AFAFAF" transform="translate(75,275)"/>
<path d="M0 0 C2.64 1.32 5.28 2.64 8 4 C6 7 6 7 3.875 7.6875 C3.25625 7.790625 2.6375 7.89375 2 8 C1.34 7.01 0.68 6.02 0 5 C-0.99 4.34 -1.98 3.68 -3 3 C-2.01 2.01 -1.02 1.02 0 0 Z " fill="#0D0D0D" transform="translate(170,184)"/>
<path d="M0 0 C0.33 0 0.66 0 1 0 C1 3.3 1 6.6 1 10 C8.26 10 15.52 10 23 10 C23 10.33 23 10.66 23 11 C15.74 11 8.48 11 1 11 C1 11.99 1 12.98 1 14 C0.01 14 -0.98 14 -2 14 C-2 13.01 -2 12.02 -2 11 C-1.34 11 -0.68 11 0 11 C0 7.37 0 3.74 0 0 Z " fill="#7B7B7B" transform="translate(56,301)"/>
<path d="M0 0 C0.66 0.33 1.32 0.66 2 1 C1.49890042 5.38462134 0.01704885 7.8000997 -3 11 C-3.66 11 -4.32 11 -5 11 C-5.33 10.01 -5.66 9.02 -6 8 C-5.34 7.34 -4.68 6.68 -4 6 C-4 5.01 -4 4.02 -4 3 C-2 1.3125 -2 1.3125 0 0 Z " fill="#F5F5F5" transform="translate(141,92)"/>
<path d="M0 0 C1.98 0.66 3.96 1.32 6 2 C6 3.32 6 4.64 6 6 C5.38125 5.814375 4.7625 5.62875 4.125 5.4375 C1.95839822 4.76313824 1.95839822 4.76313824 0 6 C-0.33 6.66 -0.66 7.32 -1 8 C-1.99 6.68 -2.98 5.36 -4 4 C-2.68 2.68 -1.36 1.36 0 0 Z " fill="#020202" transform="translate(153,86)"/>
<path d="M0 0 C1.32 0.33 2.64 0.66 4 1 C1.525 4.465 1.525 4.465 -1 8 C-3.475 7.01 -3.475 7.01 -6 6 C-4 4 -2 2 0 0 Z " fill="#E6E6E6" transform="translate(158,93)"/>
<path d="M0 0 C5.71937959 1.85493392 11.35555275 3.93103891 17 6 C13.02623171 7.56393356 10.18622097 6.36145292 6.25 5.0625 C5.07953125 4.68222656 3.9090625 4.30195313 2.703125 3.91015625 C1.81109375 3.60980469 0.9190625 3.30945313 0 3 C0 2.01 0 1.02 0 0 Z " fill="#BABABA" transform="translate(178,186)"/>
<path d="M0 0 C0.33 0 0.66 0 1 0 C0.50769231 6.4 0.50769231 6.4 -2.0625 9.4375 C-3.0215625 10.2109375 -3.0215625 10.2109375 -4 11 C-4.66 9.35 -5.32 7.7 -6 6 C-5.34 5.34 -4.68 4.68 -4 4 C-3.67 4.33 -3.34 4.66 -3 5 C-2.525625 4.175 -2.05125 3.35 -1.5625 2.5 C-1.046875 1.675 -0.53125 0.85 0 0 Z " fill="#1C1C1C" transform="translate(214,141)"/>
<path d="M0 0 C1.8125 0.1875 1.8125 0.1875 4 1 C7 5.17857143 7 5.17857143 7 8 C6.01 8.33 5.02 8.66 4 9 C0 2.25 0 2.25 0 0 Z " fill="#0F0F0F" transform="translate(345,295)"/>
<path d="M0 0 C0.66 0.99 1.32 1.98 2 3 C0.625 4.5 0.625 4.5 -1 6 C-1.66 6 -2.32 6 -3 6 C-3 7.98 -3 9.96 -3 12 C-3.99 12 -4.98 12 -6 12 C-6.33 10.35 -6.66 8.7 -7 7 C-5.824375 6.6596875 -5.824375 6.6596875 -4.625 6.3125 C-1.78125 5.21875 -1.78125 5.21875 -0.6875 2.375 C-0.460625 1.59125 -0.23375 0.8075 0 0 Z " fill="#D1D1D1" transform="translate(226,303)"/>
<path d="M0 0 C1.32 0 2.64 0 4 0 C3.67 4.29 3.34 8.58 3 13 C2.34 13 1.68 13 1 13 C0.67 8.71 0.34 4.42 0 0 Z " fill="#E6E6E6" transform="translate(318,258)"/>
<path d="M0 0 C0.99 0.99 1.98 1.98 3 3 C-2.75 6.875 -2.75 6.875 -5 8 C-5 7.01 -5 6.02 -5 5 C-5.66 4.67 -6.32 4.34 -7 4 C-4.69 2.68 -2.38 1.36 0 0 Z " fill="#E4E4E4" transform="translate(163,73)"/>
<path d="M0 0 C0.66 0.99 1.32 1.98 2 3 C0.02 3.66 -1.96 4.32 -4 5 C-4 4.01 -4 3.02 -4 2 C-5.32 1.34 -6.64 0.68 -8 0 C-4.71303767 -0.79953138 -3.28976808 -1.09658936 0 0 Z " fill="#0D0D0D" transform="translate(191,67)"/>
<path d="M0 0 C-7.5 2.5 -7.5 2.5 -15 5 C-15.99 4.34 -16.98 3.68 -18 3 C-5.19196517 -1.43677024 -5.19196517 -1.43677024 0 0 Z " fill="#CCCCCC" transform="translate(192,80)"/>
<path d="M0 0 C0.33 0 0.66 0 1 0 C1 3.63 1 7.26 1 11 C1.99 11.33 2.98 11.66 4 12 C3.34 13.65 2.68 15.3 2 17 C1.34 17 0.68 17 0 17 C0 11.39 0 5.78 0 0 Z " fill="#CCCCCC" transform="translate(343,260)"/>
<path d="M0 0 C3.465 1.98 3.465 1.98 7 4 C7 4.99 7 5.98 7 7 C3.22454612 5.90931332 0.52956528 5.0916909 -2 2 C-1.34 1.34 -0.68 0.68 0 0 Z " fill="#E8E8E8" transform="translate(158,207)"/>
<path d="M0 0 C1.65 0 3.3 0 5 0 C5.33 0.66 5.66 1.32 6 2 C4.35 3.65 2.7 5.3 1 7 C-1 4 -1 4 -0.625 1.8125 C-0.41875 1.214375 -0.2125 0.61625 0 0 Z " fill="#161616" transform="translate(266,203)"/>
<path d="M0 0 C0.66 0.66 1.32 1.32 2 2 C0.68 4.64 -0.64 7.28 -2 10 C-2.99 9.34 -3.98 8.68 -5 8 C-4.45773019 4.20411134 -2.79872437 2.52788007 0 0 Z " fill="#0F0F0F" transform="translate(287,177)"/>
<path d="M0 0 C1.32 0.99 2.64 1.98 4 3 C2.8553125 3.6496875 2.8553125 3.6496875 1.6875 4.3125 C-0.58093768 5.73686785 -2.2199723 7.03260097 -4 9 C-4.66 8.34 -5.32 7.68 -6 7 C-4.02 4.69 -2.04 2.38 0 0 Z " fill="#161616" transform="translate(169,108)"/>
<path d="M0 0 C0.99 1.32 1.98 2.64 3 4 C1.68 5.32 0.36 6.64 -1 8 C-1.66 7.34 -2.32 6.68 -3 6 C-3.99 6.495 -3.99 6.495 -5 7 C-3.70700306 4.11562221 -2.34058637 2.12780579 0 0 Z " fill="#E6E6E6" transform="translate(144,87)"/>
<path d="M0 0 C0.33 0.99 0.66 1.98 1 3 C0.01 4.485 0.01 4.485 -1 6 C-1 6.66 -1 7.32 -1 8 C-1.99 8 -2.98 8 -4 8 C-4.33 8.99 -4.66 9.98 -5 11 C-5.68359375 9.234375 -5.68359375 9.234375 -6 7 C-4.78515625 5.078125 -4.78515625 5.078125 -3.0625 3.25 C-2.49660156 2.63640625 -1.93070312 2.0228125 -1.34765625 1.390625 C-0.90292969 0.93171875 -0.45820313 0.4728125 0 0 Z " fill="#C8C8C8" transform="translate(365,276)"/>
<path d="M0 0 C3.875 1.875 3.875 1.875 5 3 C5 3.66 5 4.32 5 5 C3.02 5.33 1.04 5.66 -1 6 C-1.66 5.01 -2.32 4.02 -3 3 C-2.01 2.01 -1.02 1.02 0 0 Z " fill="#E9E9E9" transform="translate(266,210)"/>
<path d="M0 0 C0.99 0.33 1.98 0.66 3 1 C1.91926148 3.16147703 0.80636736 4.41039672 -1 6 C-1.66 6 -2.32 6 -3 6 C-1.125 1.125 -1.125 1.125 0 0 Z M-4 6 C-4 9 -4 9 -5.5 10.6875 C-5.995 11.120625 -6.49 11.55375 -7 12 C-7.66 11.67 -8.32 11.34 -9 11 C-7.35 9.35 -5.7 7.7 -4 6 Z " fill="#E5E5E5" transform="translate(280,194)"/>
<path d="M0 0 C0.66386719 0.20496094 1.32773438 0.40992188 2.01171875 0.62109375 C2.89472656 0.89050781 3.77773437 1.15992188 4.6875 1.4375 C5.55761719 1.70433594 6.42773438 1.97117188 7.32421875 2.24609375 C9.87025921 2.96344529 12.4003423 3.517541 15 4 C15 4.33 15 4.66 15 5 C9.08507728 4.54775239 3.64800112 3.8417395 -2 2 C-1.34 1.34 -0.68 0.68 0 0 Z " fill="#A6A6A6" transform="translate(176,217)"/>
<path d="M0 0 C0 3.23861295 -0.6250851 5.09740189 -2 8 C-2.99 8.495 -2.99 8.495 -4 9 C-4.33 7.02 -4.66 5.04 -5 3 C-3.35 2.01 -1.7 1.02 0 0 Z " fill="#050505" transform="translate(148,121)"/>
<path d="M0 0 C-2.81166418 1.51150967 -5.45680982 2.51430351 -8.5625 3.25 C-9.70912109 3.53617187 -9.70912109 3.53617187 -10.87890625 3.828125 C-13 4 -13 4 -16 2 C-10.42932723 0.40837921 -5.78898419 -0.20674944 0 0 Z " fill="#C1C1C1" transform="translate(192,65)"/>
<path d="M0 0 C3.82946843 1.45255699 5.12050295 3.42895561 7 7 C5.35 7 3.7 7 2 7 C0 2.25 0 2.25 0 0 Z " fill="#EEEEEE" transform="translate(128,199)"/>
<path d="M0 0 C0.66 0.33 1.32 0.66 2 1 C1 4 1 4 -1 5 C-1 5.66 -1 6.32 -1 7 C-2.32 6.67 -3.64 6.34 -5 6 C-4.75 4.125 -4.75 4.125 -4 2 C-2.0625 0.6875 -2.0625 0.6875 0 0 Z " fill="#E9E9E9" transform="translate(194,120)"/>
<path d="M0 0 C0.33 0 0.66 0 1 0 C1 2.97 1 5.94 1 9 C-0.32 9.33 -1.64 9.66 -3 10 C-2.01 6.7 -1.02 3.4 0 0 Z " fill="#CCCCCC" transform="translate(109,276)"/>
<path d="M0 0 C1.32 0.33 2.64 0.66 4 1 C3.01 1.495 3.01 1.495 2 2 C1.5316735 4.58605332 1.5316735 4.58605332 1.375 7.5625 C1.30023438 8.57441406 1.22546875 9.58632813 1.1484375 10.62890625 C1.09945312 11.41136719 1.05046875 12.19382812 1 13 C0.67 13 0.34 13 0 13 C0 8.71 0 4.42 0 0 Z " fill="#E0E0E0" transform="translate(159,258)"/>
<path d="M0 0 C0.66 0.66 1.32 1.32 2 2 C1.625 5.625 1.625 5.625 1 9 C0.67 7.68 0.34 6.36 0 5 C-0.99 5 -1.98 5 -3 5 C-3 4.01 -3 3.02 -3 2 C-2.01 2 -1.02 2 0 2 C0 1.34 0 0.68 0 0 Z " fill="#C6C6C6" transform="translate(57,145)"/>
<path d="M0 0 C0.33 0 0.66 0 1 0 C1 4.62 1 9.24 1 14 C-0.32 13.67 -1.64 13.34 -3 13 C-3 12.01 -3 11.02 -3 10 C-2.01 10 -1.02 10 0 10 C0 6.7 0 3.4 0 0 Z " fill="#CDCDCD" transform="translate(140,137)"/>
<path d="M0 0 C0.99 0.33 1.98 0.66 3 1 C2.2884375 1.680625 2.2884375 1.680625 1.5625 2.375 C-0.09027808 3.93258204 -0.09027808 3.93258204 -1 6 C-2.65 4.35 -4.3 2.7 -6 1 C-4.7934375 1.0309375 -4.7934375 1.0309375 -3.5625 1.0625 C-1.06645115 1.29633621 -1.06645115 1.29633621 0 0 Z " fill="#E5E5E5" transform="translate(261,65)"/>
<path d="M0 0 C0 4.29 0 8.58 0 13 C-0.33 13 -0.66 13 -1 13 C-1.33 9.7 -1.66 6.4 -2 3 C-2.99 3.33 -3.98 3.66 -5 4 C-4.67 3.01 -4.34 2.02 -4 1 C-2 0 -2 0 0 0 Z " fill="#E3E3E3" transform="translate(110,285)"/>
<path d="M0 0 C1.98 1.65 3.96 3.3 6 5 C4.02 5.99 4.02 5.99 2 7 C1.67 5.68 1.34 4.36 1 3 C0.34 3 -0.32 3 -1 3 C-0.67 2.01 -0.34 1.02 0 0 Z " fill="#D7D7D7" transform="translate(157,186)"/>
<path d="M0 0 C1.5625 1.8125 1.5625 1.8125 3 4 C2.67 4.99 2.34 5.98 2 7 C1.01 7.33 0.02 7.66 -1 8 C-1.66 6.68 -2.32 5.36 -3 4 C-2.01 3.67 -1.02 3.34 0 3 C0 2.01 0 1.02 0 0 Z " fill="#E3E3E3" transform="translate(148,173)"/>
<path d="M0 0 C3 1 3 1 5 3 C1.535 4.485 1.535 4.485 -2 6 C-2.33 4.68 -2.66 3.36 -3 2 C-2.01 1.34 -1.02 0.68 0 0 Z " fill="#131313" transform="translate(153,42)"/>
<path d="M0 0 C0.33 0 0.66 0 1 0 C1 4.62 1 9.24 1 14 C0.01 14 -0.98 14 -2 14 C-2 13.01 -2 12.02 -2 11 C-1.34 11 -0.68 11 0 11 C0 7.37 0 3.74 0 0 Z " fill="#B6B6B6" transform="translate(56,301)"/>
<path d="M0 0 C1.125 1.625 1.125 1.625 2 4 C1.125 7.25 1.125 7.25 0 10 C-2 7 -2 7 -3 4 C-2.34 3.67 -1.68 3.34 -1 3 C-0.67 2.01 -0.34 1.02 0 0 Z " fill="#101010" transform="translate(98,300)"/>
<path d="M0 0 C1.65 0 3.3 0 5 0 C5.33 1.98 5.66 3.96 6 6 C4.02 5.01 2.04 4.02 0 3 C0 2.01 0 1.02 0 0 Z " fill="#131313" transform="translate(154,219)"/>
<path d="M0 0 C1.32 0 2.64 0 4 0 C4.33 1.98 4.66 3.96 5 6 C3.0625 5.25 3.0625 5.25 1 4 C0.25 1.875 0.25 1.875 0 0 Z " fill="#F1F1F1" transform="translate(161,173)"/>
<path d="M0 0 C0.66 0.33 1.32 0.66 2 1 C0.515 3.475 0.515 3.475 -1 6 C-2.32 5.67 -3.64 5.34 -5 5 C-3.35 3.35 -1.7 1.7 0 0 Z " fill="#F9F9F9" transform="translate(149,84)"/>
<path d="M0 0 C0.66 0.66 1.32 1.32 2 2 C0.71475739 2.86380259 -0.57842419 3.71580369 -1.875 4.5625 C-2.59429687 5.03816406 -3.31359375 5.51382813 -4.0546875 6.00390625 C-4.69664062 6.33261719 -5.33859375 6.66132812 -6 7 C-6.66 6.67 -7.32 6.34 -8 6 C-5.36 4.02 -2.72 2.04 0 0 Z " fill="#171717" transform="translate(151,67)"/>
<path d="M0 0 C1.32 0.33 2.64 0.66 4 1 C3.34 2.32 2.68 3.64 2 5 C1.01 5 0.02 5 -1 5 C-1 2 -1 2 0 0 Z " fill="#101010" transform="translate(363,272)"/>
<path d="M0 0 C0 3.69418201 -1.28179295 5.77836178 -3 9 C-3.99 8.67 -4.98 8.34 -6 8 C-4.02 5.36 -2.04 2.72 0 0 Z " fill="#272727" transform="translate(161,95)"/>
<path d="M0 0 C2.6875 0.875 2.6875 0.875 5 2 C4.34 2.66 3.68 3.32 3 4 C2.34 3.67 1.68 3.34 1 3 C0.67 3.66 0.34 4.32 0 5 C-0.99 4.01 -1.98 3.02 -3 2 C-2.01 1.34 -1.02 0.68 0 0 Z " fill="#131313" transform="translate(251,65)"/>
<path d="M0 0 C0 0.66 0 1.32 0 2 C-1.98 2.99 -3.96 3.98 -6 5 C-6 4.34 -6 3.68 -6 3 C-6.66 2.67 -7.32 2.34 -8 2 C-4.91190305 0.23537317 -3.76687864 0 0 0 Z " fill="#E8E8E8" transform="translate(164,58)"/>
<path d="M0 0 C0.99 0.66 1.98 1.32 3 2 C2.67 3.32 2.34 4.64 2 6 C0.68 6 -0.64 6 -2 6 C-1.34 4.02 -0.68 2.04 0 0 Z " fill="#E9E9E9" transform="translate(285,185)"/>
<path d="M0 0 C0.928125 0.2784375 0.928125 0.2784375 1.875 0.5625 C4.04160178 1.23686176 4.04160178 1.23686176 6 0 C6.33 1.32 6.66 2.64 7 4 C5.68 4.33 4.36 4.66 3 5 C2.01 3.35 1.02 1.7 0 0 Z " fill="#1A1A1A" transform="translate(137,183)"/>
<path d="M0 0 C2.4375 0.75 2.4375 0.75 5 2 C5.8125 4.125 5.8125 4.125 6 6 C4.02 5.01 2.04 4.02 0 3 C0 2.01 0 1.02 0 0 Z " fill="#F0F0F0" transform="translate(172,182)"/>
<path d="M0 0 C2.97 0.495 2.97 0.495 6 1 C6 1.66 6 2.32 6 3 C2.25 4.125 2.25 4.125 0 3 C0 2.01 0 1.02 0 0 Z " fill="#FDFDFD" transform="translate(193,158)"/>
<path d="M0 0 C2.125 0.375 2.125 0.375 4 1 C2.35 2.65 0.7 4.3 -1 6 C-1.625 4.125 -1.625 4.125 -2 2 C-1.34 1.34 -0.68 0.68 0 0 Z " fill="#DFDFDF" transform="translate(176,98)"/>
<path d="M0 0 C2.31 0 4.62 0 7 0 C7.33 0.99 7.66 1.98 8 3 C3.73173127 3 3.06117568 2.62386487 0 0 Z " fill="#2F2F2F" transform="translate(190,64)"/>
<path d="M0 0 C2.125 0.9375 2.125 0.9375 4 2 C4 2.66 4 3.32 4 4 C2.125 4.625 2.125 4.625 0 5 C-0.66 4.34 -1.32 3.68 -2 3 C-2 2.34 -2 1.68 -2 1 C-1.34 0.67 -0.68 0.34 0 0 Z " fill="#F1F1F1" transform="translate(155,25)"/>
<path d="M0 0 C0.99 0.495 0.99 0.495 2 1 C1.34 1.66 0.68 2.32 0 3 C0 2.01 0 1.02 0 0 Z M-3 1 C-1.515 1.99 -1.515 1.99 0 3 C0 3.66 0 4.32 0 5 C-0.99 5 -1.98 5 -3 5 C-3.33 5.66 -3.66 6.32 -4 7 C-3.67 5.02 -3.34 3.04 -3 1 Z " fill="#F7F7F7" transform="translate(282,293)"/>
<path d="M0 0 C1.32 0.33 2.64 0.66 4 1 C4 2.32 4 3.64 4 5 C3.01 5.495 3.01 5.495 2 6 C1.34 4.02 0.68 2.04 0 0 Z " fill="#E4E4E4" transform="translate(90,268)"/>
<path d="M0 0 C2 1.3125 2 1.3125 4 3 C4 3.99 4 4.98 4 6 C2.68 5.34 1.36 4.68 0 4 C0 2.68 0 1.36 0 0 Z " fill="#040404" transform="translate(139,195)"/>
<path d="M0 0 C1.2065625 0.0309375 1.2065625 0.0309375 2.4375 0.0625 C2.4375 0.7225 2.4375 1.3825 2.4375 2.0625 C3.0975 2.3925 3.7575 2.7225 4.4375 3.0625 C2.6875 3.75 2.6875 3.75 0.4375 4.0625 C-1.8125 2.625 -1.8125 2.625 -3.5625 1.0625 C-2.5625 0.0625 -2.5625 0.0625 0 0 Z " fill="#1B1B1B" transform="translate(313.5625,192.9375)"/>
<path d="M0 0 C2.475 0.495 2.475 0.495 5 1 C5.33 1.99 5.66 2.98 6 4 C5.01 4.66 4.02 5.32 3 6 C2.01 4.02 1.02 2.04 0 0 Z " fill="#131313" transform="translate(296,82)"/>
<path d="M0 0 C0.66 1.32 1.32 2.64 2 4 C0.02 5.32 -1.96 6.64 -4 8 C-2.87548273 5.0280615 -1.77706209 2.66559313 0 0 Z " fill="#333333" transform="translate(100,75)"/>
<path d="M0 0 C0.66 0.33 1.32 0.66 2 1 C2 2.98 2 4.96 2 7 C0.68 5.68 -0.64 4.36 -2 3 C-1.34 2.01 -0.68 1.02 0 0 Z " fill="#DEDEDE" transform="translate(303,63)"/>
<path d="M0 0 C-1 3 -1 3 -2.8125 4.25 C-5.33943414 5.11637742 -6.52221994 4.88492145 -9 4 C-2.25 0 -2.25 0 0 0 Z " fill="#2D2D2D" transform="translate(151,32)"/>
</svg>
