 <svg
                fill="#fff"
                version="1.0"
                xmlns="http://www.w3.org/2000/svg"
                viewBox="0 0 300 131"
              >
                <path
                  d="M54.5 29.7c-14.6 5.3-26 17.5-28.1 30.4-.4 2.5-1.4 4-3 4.7-4 1.9-5.7 5.6-5.2 11.7.6 7 3.5 10.5 8.7 10.5 5.3 0 6.6-1.2 5-4.1-.9-1.6-1.4-6-1.4-12.9 0-9.9.2-10.9 3.1-16.5 14.7-28 52.5-28 66.7 0 4.4 8.7 4.9 21.1 1.2 30.6-.7 1.9 4.1 3.7 7.5 2.9 3.6-.8 7-6.4 7-11.4 0-4.6-2.9-10.1-5.8-11-1.3-.5-2.2-1.9-2.6-4.5-.8-5.5-6-14.9-10.9-19.9-2.3-2.4-7.5-6-11.6-8-6.5-3.2-8.3-3.7-16.5-3.9-6.8-.3-10.3.1-14.1 1.4zm-28 47c.6 4.4.4 5.3-.9 5.3-3.1 0-4.6-6.2-2.5-10.2 1.5-2.8 2.6-1.2 3.4 4.9zm84.6-4.6c1.4 2.7.3 8.5-1.8 9.3-2.3.9-2.4.5-1.7-5.8.7-6 1.6-6.9 3.5-3.5z"
                />
                <path
                  d="M57.7 42.4c-8.9 3.2-16.4 11.2-18.8 20-2.7 9.9 1.2 23 8.7 29.6 6 5.3 11.8 7.4 20 7.4 6.2-.1 7.9-.5 13.5-3.6 14.1-7.6 19.2-22.9 12.7-37.8-4.2-9.9-15.3-17-26.3-17-3.3.1-7.7.7-9.8 1.4zm1.5 4.8c-10.4 4.1-17.3 15.4-15.9 26 1.2 8.9 9.5 19 16.8 20.5 1.6.3 2.9.9 2.9 1.4 0 2.6-9.6-1.9-14.2-6.7-7.2-7.4-9.5-16.8-6.4-26.2 2.9-8.5 12.9-17.3 19.6-17.1 1.9 0 1.2.6-2.8 2.1zm20.5 1.1c8.7 5.6 12.6 12.5 12.6 22.2-.1 10.1-4.7 17.6-13.5 22.1-5.5 2.8-13.8 3.3-15.8.9-.7-.8-.9-1.5-.4-1.5s-1.1-1-3.6-2.1c-8.8-4-13.3-10.7-13.3-20 0-9.4 5.3-16.7 14.6-20 2.2-.8 4.3-2.2 4.9-3.3.8-1.6 1.8-1.8 5.8-1.3 2.7.3 6.6 1.7 8.7 3z"
                />
                <path
                  d="M57.4 52.9c-11.7 7.2-13 23.6-2.4 32.4 3.9 3.3 7 4.3 8.1 2.6.6-1 .1-1.6-1.9-2.1-3.6-1-8.1-5.3-9.8-9.4-3.7-8.7.3-17.7 9.7-21.9 2.1-1 3.9-2.2 3.9-2.7 0-1.5-4.4-.8-7.6 1.1z"
                />
                <path
                  d="M62.5 55.8C57.1 57.6 52 64.5 52 70c.1 4.3 3.7 10.8 7.2 13 3.9 2.4 6 2.6 5.2.5-.5-1.2.2-1.5 2.8-1.5 4.6 0 10.5-4.9 11.4-9.6 1.2-6.6-3.8-12.9-11.2-14.1-2.8-.5-3.2-.8-2.3-1.9 1.2-1.5.6-1.6-2.6-.6zm10.8 9.3c3.9 4.7.5 12.9-5.4 12.9-4.1 0-5.8-.9-7.5-4.1-1.8-3.7-1-7.3 2.4-10 3.2-2.5 7.8-2 10.5 1.2z"
                />
                <path
                  d="M64.3 68.6c-.8 2.2 1 4.9 3.2 4.9 1 0 2.2-.7 2.8-1.6 1.5-2.4.1-4.9-2.8-4.9-1.5 0-2.8.7-3.2 1.6zM123.5 62v12h7.5l-.6-5.8c-.3-3.1-.7-6.7-1-8-.2-1.2 0-2.2.5-2.2.6 0 1.8 3.6 2.8 8 1.8 7.9 1.8 8 5 8 3.1 0 3.2-.2 4.7-6.8C144 60 146 55 147.3 55c1.2 0 .8 2.8-.5 3.2-.8.3-1.4 3.3-1.6 8.1l-.4 7.7H152.5V49.9l-5.5.3-5.4.3-1.4 6.7c-.8 3.8-1.8 6.8-2.2 6.8-.4 0-1.2-3.2-1.9-7l-1.3-7h-11.3v12zM157 58.5c0 12.9 2.1 15.5 12.5 15.5 4.3 0 6-.5 8.2-2.4 2.6-2.3 2.8-2.9 3.1-12l.4-9.6H173v8.3c0 5.1-.5 8.8-1.2 9.5-1.7 1.7-4.4 1.5-6.4-.5-1.4-1.4-1.6-2.9-1-9.5l.6-7.8h-8v8.5zM189.2 51c-2.8 1.2-4.6 5.1-3.8 8.3.6 2.5 6.5 5.7 10.5 5.7 2.1 0 4.4 2.3 3.4 3.3-1.2 1.3-6.4.7-6.9-.8-.4-.9-1.9-1.5-4-1.5-2.7 0-3.4.4-3.4 2 0 3.9 3.8 6 11.1 6 6.1 0 7-.3 8.8-2.6 3.7-4.7 2.3-9.6-3.1-11.2-1.8-.6-4.5-1.3-6-1.6-3.9-.9-3.7-3.6.2-3.6 1.7 0 3 .4 3 .9 0 1.2 6.3 2.1 7.4 1.1.5-.5-.5-2.2-2.2-3.9-2.6-2.6-3.8-3.1-7.9-3-2.6 0-5.8.4-7.1.9zM211 62v12h8V50h-8v12zM224 62v12h7.5l-.3-5.5c-.2-3 0-5.5.5-5.4.4 0 2.7 2.5 5.1 5.5 3.7 4.7 4.8 5.4 7.7 5.4h3.5V50h-7.2l.4 6c.2 3.3.1 5.9-.3 5.8-.4-.2-2.8-2.9-5.3-6.1-4.1-4.9-5.2-5.7-8.2-5.7H224v12zm7.9-4.2c.7 1.4.5 2.1-.9 2.9-1.5 1-1.9.9-2.2-.5-1-3.8 1.4-5.6 3.1-2.4zm11.6 9.9c-.5 1.5-.7 1.5-2.3-.1-1.6-1.6-1.6-1.8.3-3.2 1.8-1.3 2-1.3 2.3.1.2.9.1 2.3-.3 3.2zM253 62v12h4c3.7 0 4-.2 4-2.8.1-1.6.9-3.3 2.4-4.4 2.2-1.6 2.3-1.6 4.4 2.8 2.1 4.3 2.3 4.4 6.8 4.4h4.6l-1.7-2.8c-1-1.5-2.9-4.3-4.2-6.2-1.2-1.9-2.3-3.9-2.3-4.3 0-.5 1.8-3.1 4.1-5.8l4.1-4.9h-4.9c-4.8 0-5 .1-9.1 5.7-2.3 3.2-4.2 5.3-4.3 4.8 0-.6 0-3.1.1-5.8l.1-4.7H253v12zm6.9-.1c1.7 1.1.7 4.1-1.3 4.1-.9 0-1.3-.9-1.2-2.5.1-2.7.4-2.9 2.5-1.6z"
                />
              </svg>